<?xml version="1.0" encoding="UTF-8"?>
<svg width="16px" height="16px" viewBox="0 0 16 16" version="1.1" xmlns="http://www.w3.org/2000/svg" xmlns:xlink="http://www.w3.org/1999/xlink">
    <!-- Generator: Sketch 59 (86127) - https://sketch.com -->
    <title>achievementBooth@2x</title>
    <desc>Created with Sketch.</desc>
    <g id="页面-1" stroke="none" stroke-width="1" fill="none" fill-rule="evenodd">
        <g id="画板" transform="translate(-475.000000, -52.000000)" fill-rule="nonzero">
            <g id="展示备份" transform="translate(475.000000, 52.000000)">
                <rect id="矩形" fill="#000000" opacity="0" x="0" y="0" width="16" height="16"></rect>
                <path d="M7.85064,3.168 C7.74175269,3.16785158 7.63738409,3.12445387 7.56049415,3.04735389 C7.48360421,2.97025391 7.44049138,2.86576731 7.44063962,2.75688 L7.44063962,1.69112 C7.44063962,1.5446411 7.51878555,1.40928902 7.64563999,1.33604956 C7.77249444,1.26281011 7.92878556,1.26281011 8.05564001,1.33604956 C8.18249445,1.40928902 8.26064063,1.5446411 8.26064063,1.69112 L8.26064063,2.7568 C8.2608311,2.86570764 8.21773449,2.97022712 8.14083765,3.04734902 C8.06394082,3.12447092 7.95954773,3.16787281 7.85064,3.168 L7.85064,3.168 Z M11.46456,9.37984 L8.0632,9.37984 C7.838403,9.37670395 7.65781481,9.19357887 7.65781481,8.96876 C7.65781481,8.74394113 7.838403,8.56081605 8.0632,8.55768 L11.46456,8.55768 C11.6876805,8.56307208 11.8657475,8.74549432 11.8657475,8.96868 C11.8657475,9.19186568 11.6876805,9.37428792 11.46456,9.37968 L11.46456,9.37984 Z M4.57048,14.73904 C4.4261476,14.738739 4.29256139,14.662715 4.2185898,14.538779 C4.1446182,14.4148429 4.14111435,14.2611789 4.20936,14.134 L5.36336,11.972 C5.43266952,11.8428413 5.56561949,11.76047 5.71212893,11.7559145 C5.85863837,11.751359 5.99644902,11.8253114 6.07364893,11.9499145 C6.15084885,12.0745176 6.15570953,12.2308413 6.0864,12.36 L4.93232,14.52184 C4.86112972,14.6555606 4.72197009,14.7390933 4.57048,14.73904 L4.57048,14.73904 Z M11.13048,14.8 C10.9741087,14.8000677 10.8313371,14.7111147 10.76248,14.57072 L9.63872,12.28696 C9.57374053,12.1555863 9.58378406,11.9995259 9.66506729,11.8775651 C9.74635052,11.7556044 9.8865246,11.6862721 10.0327873,11.6956851 C10.17905,11.7050981 10.3091805,11.7918263 10.37416,11.9232 L11.49768,14.20696 C11.5605683,14.3341065 11.5534261,14.4846987 11.4787867,14.6053226 C11.4041473,14.7259465 11.2725684,14.79954 11.13072,14.8 L11.13048,14.8 Z" id="形状" fill="#FFFFFF"></path>
                <path d="M13.61104,12.15048 L2.54896,12.15048 C1.89198018,12.1488045 1.36021833,11.6158619 1.36,10.95888 L1.36,3.65936 C1.36021833,3.00237808 1.89198018,2.46943549 2.54896,2.46776 L13.61104,2.46776 C14.2680198,2.46943549 14.7997817,3.00237808 14.8,3.65936 L14.8,10.95888 C14.7997817,11.6158619 14.2680198,12.1488045 13.61104,12.15048 Z M2.54896,3.29248 C2.34665026,3.29292115 2.18288,3.45704978 2.18288,3.65936 L2.18288,10.95888 C2.18288,11.1611902 2.34665026,11.3253189 2.54896,11.32576 L13.61104,11.32576 C13.8133497,11.3253189 13.97712,11.1611902 13.97712,10.95888 L13.97712,3.65936 C13.97712,3.45704978 13.8133497,3.29292115 13.61104,3.29248 L2.54896,3.29248 Z" id="形状" fill="#FFFFFF"></path>
            </g>
        </g>
    </g>
</svg>