<?xml version="1.0" encoding="UTF-8"?>
<svg width="16px" height="16px" viewBox="0 0 16 16" version="1.1" xmlns="http://www.w3.org/2000/svg" xmlns:xlink="http://www.w3.org/1999/xlink">
    <!-- Generator: Sketch 59 (86127) - https://sketch.com -->
    <title>eldelyPolicy@2x</title>
    <desc>Created with Sketch.</desc>
    <g id="页面-1" stroke="none" stroke-width="1" fill="none" fill-rule="evenodd">
        <g id="画板" transform="translate(-433.000000, -52.000000)" fill-rule="nonzero">
            <g id="政策备份" transform="translate(434.000000, 54.000000)">
                <rect id="矩形" fill="#000000" opacity="0" x="0" y="0" width="13" height="13"></rect>
                <path d="M1.0746224,1.05225091 L1.0746224,9.15282985 C1.0746224,9.30882548 1.261286,9.57748464 1.41205276,9.64681603 L6.97785885,11.9513627 C6.9692436,11.9426962 7.00478148,11.9600291 7.00478148,11.9600291 C7.00478148,11.9600291 7.04031936,11.9513627 7.03134515,11.9513627 L12.5975102,9.64681603 C12.7393027,9.59481748 12.9349406,9.30882548 12.9349406,9.15282985 L12.9349406,1.05225091 L7.31493024,2.69851041 L7.01339673,2.78517465 L6.71150424,2.69851041 L1.0746224,1.05225091 Z M1.03011031,0.0386403845 L6.99580727,1.6935663 L12.9615042,0.0386403845 C13.5207771,-0.117355261 14,0.211968865 14,0.792258189 L14,9.1358581 C14,9.69917566 13.555956,10.3574628 13.0146316,10.5827898 L7.43985127,12.9046693 C7.29988141,12.966679 7.14874754,12.9991256 6.99580727,13 C6.86262997,13 6.70288901,12.9653343 6.55176327,12.9046693 L0.985957186,10.5997616 C0.435299565,10.3744346 0.000113336756,9.71614742 0.000113336756,9.15282985 L0.000113336756,0.792258189 C-0.00838546092,0.220635283 0.462222194,-0.117355261 1.03046929,0.0386403845 L1.03011031,0.0386403845 Z" id="形状" fill="#FFFFFF"></path>
                <path d="M4.4292914,7.50453997 L2.92286748,8.3948849 L3.22013027,6.50470667 L2,5.15635547 L3.69728638,4.87922558 L4.43989488,3.14545931 L5.19310685,4.87922558 L6.89039323,5.15595441 L5.6596595,6.49267499 L5.95692227,8.38325427 L4.4292914,7.50413891 L4.4292914,7.50453997 Z M8.70922387,5.3147727 L11.9096435,4.14368838 C12.0442398,4.09381989 12.1552422,3.98730845 12.2182,3.84761568 C12.2811578,3.70792292 12.2909063,3.54650819 12.2452981,3.39892687 C12.1480387,3.09893676 11.8474852,2.92487835 11.5648479,3.03155932 L8.3644283,4.20184154 C8.22967881,4.25162418 8.11852312,4.35816593 8.05548424,4.4979617 C7.99244535,4.63775748 7.98270354,4.79931947 8.02840801,4.9470041 C8.07366791,5.09522802 8.17108143,5.2174485 8.29895695,5.28644999 C8.42683246,5.35545149 8.57455267,5.36550493 8.70922387,5.31437165 L8.70922387,5.3147727 Z M8.70922387,7.64611283 L11.9096435,6.47542956 C12.0442398,6.42556108 12.1552422,6.31904964 12.2182,6.17935687 C12.2811578,6.03966411 12.2909062,5.87824939 12.2452981,5.73066806 C12.1480387,5.43067796 11.8474852,5.25661955 11.5648479,5.36289946 L8.3644283,6.53358273 C8.22976495,6.58336962 8.1186768,6.68984721 8.0556463,6.82954915 C7.9926158,6.9692511 7.98281649,7.13071069 8.02840801,7.27834423 C8.12566742,7.58795967 8.42622093,7.7427674 8.70922387,7.64611283 L8.70922387,7.64611283 Z M8.70922387,9.96782761 L11.9096435,8.79714436 C12.0442398,8.74727587 12.1552422,8.64076443 12.2182,8.50107166 C12.2811578,8.36137889 12.2909063,8.19996417 12.2452981,8.05238284 C12.1480387,7.75239274 11.8474852,7.57833433 11.5648479,7.68461424 L8.3644283,8.85529751 C8.22976495,8.9050844 8.1186768,9.01156199 8.0556463,9.15126394 C7.9926158,9.29096589 7.98281649,9.45242548 8.02840801,9.60005902 C8.07359304,9.74835643 8.17097552,9.87067115 8.29885952,9.93975256 C8.42674353,10.008834 8.57450494,10.0189431 8.70922387,9.96782761 L8.70922387,9.96782761 Z" id="形状" fill="#FFFFFF"></path>
            </g>
        </g>
    </g>
</svg>