<?xml version="1.0" encoding="UTF-8"?>
<svg width="16px" height="16px" viewBox="0 0 16 16" version="1.1" xmlns="http://www.w3.org/2000/svg" xmlns:xlink="http://www.w3.org/1999/xlink">
    <!-- Generator: Sketch 59 (86127) - https://sketch.com -->
    <title>notification@2x</title>
    <desc>Created with Sketch.</desc>
    <g id="页面-1" stroke="none" stroke-width="1" fill="none" fill-rule="evenodd">
        <g id="画板" transform="translate(-402.000000, -52.000000)" fill-rule="nonzero">
            <g id="通知备份-4" transform="translate(402.000000, 52.000000)">
                <rect id="矩形" fill="#000000" opacity="0" x="0" y="0" width="16" height="16"></rect>
                <path d="M9.49009146,15.0895804 C9.3654497,15.0895804 9.24261433,15.0462268 9.1432622,14.9631322 L4.95782774,11.4767755 L3.34832317,11.4767755 C2.05313262,11.4767755 1,10.4236429 1,9.12845236 L1,6.96076944 C1,5.66557889 2.05313262,4.61244627 3.34832317,4.61244627 L4.95782774,4.61244627 L9.1432622,1.12608956 C9.30403201,0.990609376 9.52983232,0.961706937 9.71950457,1.05202706 C9.90917683,1.14054078 10.0320122,1.33201944 10.0320122,1.54336852 L10.0320122,14.5494661 C10.0320122,14.7590088 9.91098323,14.9504874 9.71950457,15.0408075 C9.64724848,15.0733228 9.56776677,15.0895804 9.49009146,15.0895804 L9.49009146,15.0895804 Z M3.34832317,5.69628773 C2.65105183,5.69628773 2.08384146,6.2634981 2.08384146,6.96076944 L2.08384146,9.12845236 C2.08384146,9.82572371 2.65105183,10.3929341 3.34832317,10.3929341 L5.15472561,10.3929341 C5.28117378,10.3929341 5.40400915,10.4380941 5.50155488,10.5193822 L8.94817073,13.3915621 L8.94817073,2.69946608 L5.50155488,5.56983956 C5.40400915,5.65112767 5.28117378,5.69628773 5.15472561,5.69628773 L3.34832317,5.69628773 Z M11.6577744,11.115495 C11.489779,11.115495 11.3235899,11.0378197 11.2170122,10.8896947 C11.0417912,10.6458304 11.0977896,10.3080332 11.341654,10.1328121 C11.8546723,9.76430602 12.1996951,8.92613529 12.1996951,8.0446109 C12.1996951,7.16308651 11.8546723,6.32491578 11.341654,5.95640968 C11.0977896,5.78118864 11.0435976,5.44339139 11.2170122,5.19952706 C11.3922332,4.95566273 11.7300305,4.90147066 11.9738948,5.07488529 C12.3767226,5.36390968 12.7127134,5.80286547 12.9457393,6.34478621 C13.1679268,6.8614173 13.285343,7.4503045 13.285343,8.0446109 C13.285343,8.6389173 13.1679268,9.2278045 12.9457393,9.7444356 C12.7145198,10.2863563 12.378529,10.7253121 11.9738948,11.0143365 C11.8781555,11.0829798 11.7679649,11.115495 11.6577744,11.115495 Z M13.1028963,13.283178 C12.9349009,13.283178 12.7705183,13.2055027 12.6639405,13.0591841 C12.4887195,12.8171261 12.5429116,12.4775225 12.7849695,12.3023014 C13.9844207,11.4334219 14.7286585,9.80043407 14.7286585,8.0446109 C14.7286585,6.28878773 13.9844207,4.65579992 12.7849695,3.78692035 C12.5429116,3.61169931 12.4887195,3.27209566 12.6639405,3.03003773 C12.8391616,2.7879798 13.1787652,2.73378773 13.4208232,2.90900877 C14.1415777,3.43105907 14.7431098,4.17710328 15.1621951,5.06404688 C15.5866997,5.96544169 15.8125,6.99689749 15.8125,8.0446109 C15.8125,9.09232431 15.5885061,10.1237801 15.1621951,11.0251749 C14.7431098,11.9121185 14.1415777,12.6563563 13.4208232,13.180213 C13.3250838,13.2488563 13.2130869,13.283178 13.1028963,13.283178 L13.1028963,13.283178 Z" id="形状" fill="#FFFFFF"></path>
            </g>
        </g>
    </g>
</svg>