<?xml version="1.0" encoding="UTF-8"?>
<svg width="16px" height="16px" viewBox="0 0 16 16" version="1.1" xmlns="http://www.w3.org/2000/svg" xmlns:xlink="http://www.w3.org/1999/xlink">
    <!-- Generator: Sketch 59 (86127) - https://sketch.com -->
    <title>oldStyle@2x</title>
    <desc>Created with Sketch.</desc>
    <g id="页面-1" stroke="none" stroke-width="1" fill="none" fill-rule="evenodd">
        <g id="画板" transform="translate(-454.000000, -52.000000)" fill-rule="nonzero">
            <g id="oldStyle" transform="translate(454.000000, 52.000000)">
                <rect id="矩形" fill="#000000" opacity="0" x="0" y="0" width="16" height="16"></rect>
                <path d="M14.593,7.681 C14.962,7.306 15.093,6.756 14.934,6.244 C14.7856453,5.74318719 14.3628306,5.37210601 13.847,5.29 L10.994,4.858 C10.7697896,4.82241862 10.5779114,4.6777604 10.482,4.472 L9.207,1.781 C8.979,1.299 8.516,1 8,1 C7.484,1 7.021,1.299 6.793,1.781 L5.518,4.473 C5.42256449,4.67872602 5.23097993,4.82344548 5.007,4.859 L2.153,5.291 C1.643,5.368 1.227,5.734 1.067,6.245 C0.906501221,6.75004217 1.0371982,7.30242909 1.407,7.682 L3.471,9.777 C3.631,9.94 3.704,10.174 3.666,10.403 L3.18,13.36 C3.08958588,13.8811395 3.29610062,14.4093703 3.716,14.731 C3.951,14.909 4.227,15 4.505,15 C4.72440638,14.9994481 4.94010389,14.9433736 5.132,14.837 L7.684,13.44 C7.88047223,13.3320102 8.11852777,13.3320102 8.315,13.44 L10.867,14.837 C11.325,15.087 11.868,15.046 12.285,14.731 C12.7047135,14.4092755 12.9108726,13.8809685 12.82,13.36 L12.333,10.402 C12.2947063,10.1741935 12.3671096,9.94176032 12.528,9.776 L14.593,7.681 L14.593,7.681 Z M11.854,9.185 C11.5371323,9.51599429 11.394831,9.97699117 11.47,10.429 L11.935,13.267 C11.9746816,13.4980628 11.8825638,13.732019 11.696,13.874 C11.5055002,14.0215944 11.2451803,14.0408919 11.035,13.923 L8.606,12.583 C8.22971423,12.373749 7.77193939,12.3741274 7.396,12.584 L4.966,13.923 C4.75613865,14.0417218 4.49550761,14.0227954 4.305,13.875 C4.11768176,13.733591 4.02537648,13.4991587 4.066,13.268 L4.53,10.43 C4.60582401,9.97764317 4.46345504,9.5160563 4.146,9.185 L2.181,7.175 C2.01653717,7.0086822 1.95832364,6.764648 2.03,6.542 C2.09753941,6.31397949 2.29086658,6.14559776 2.526,6.11 L5.243,5.696 C5.668,5.63 6.038,5.35 6.23,4.939 L7.445,2.356 C7.549,2.136 7.758,2 8,2 C8.242,2 8.451,2.136 8.554,2.356 L9.769,4.938 C9.962,5.35 10.332,5.63 10.757,5.696 L13.475,6.11 C13.7103499,6.14512937 13.9038948,6.31370079 13.971,6.542 C14.0417441,6.76468315 13.9836469,7.00823003 13.82,7.175 L11.854,9.185 L11.854,9.185 Z" id="形状" fill="#FFFFFF"></path>
            </g>
        </g>
    </g>
</svg>